<svg xmlns="http://www.w3.org/2000/svg" data-name="Layer 1" viewBox="0 0 96 120" x="0px" y="0px"><title>Artboard 77</title><path d="M82.36,78.54a45.88,45.88,0,0,0,.07-61,2.46,2.46,0,0,0-.29-.34,45.93,45.93,0,0,0-68.27,0,2,2,0,0,0-.3.34,45.88,45.88,0,0,0,0,60.92,2.46,2.46,0,0,0,.29.34,45.94,45.94,0,0,0,68.28,0A2.75,2.75,0,0,0,82.36,78.54ZM6.05,50H24a81,81,0,0,0,3,20.59,56.67,56.67,0,0,0-11.3,4.22A41.76,41.76,0,0,1,6.05,50ZM15.7,21.19A56.67,56.67,0,0,0,27,25.41,81,81,0,0,0,24,46h-18A41.76,41.76,0,0,1,15.7,21.19ZM90,46H72a81,81,0,0,0-3-20.59,56.67,56.67,0,0,0,11.3-4.22A41.76,41.76,0,0,1,90,46ZM46,24a79.23,79.23,0,0,1-13.76-1.46C35.54,13.61,40.48,7.43,46,6.22ZM31,26.33A83.74,83.74,0,0,0,46,28V46H28A76.27,76.27,0,0,1,31,26.33ZM46,50V68a83.74,83.74,0,0,0-15,1.64A76.27,76.27,0,0,1,28,50Zm0,22V89.78c-5.52-1.21-10.46-7.39-13.76-16.29A79.23,79.23,0,0,1,46,72Zm4,0a79.23,79.23,0,0,1,13.76,1.46c-3.3,8.9-8.24,15.08-13.76,16.29Zm15-2.36A83.74,83.74,0,0,0,50,68V50H68A76.27,76.27,0,0,1,65,69.67ZM50,46V28a83.74,83.74,0,0,0,15-1.64A76.27,76.27,0,0,1,68,46Zm0-22V6.22c5.52,1.21,10.46,7.39,13.76,16.29A79.23,79.23,0,0,1,50,24Zm17.76-2.38A39.57,39.57,0,0,0,59.71,7.67,42,42,0,0,1,77.48,18.12,54.2,54.2,0,0,1,67.76,21.59Zm-39.52,0a54.2,54.2,0,0,1-9.72-3.47A42,42,0,0,1,36.29,7.67,39.57,39.57,0,0,0,28.24,21.59Zm0,52.82a39.57,39.57,0,0,0,8.05,13.92A42,42,0,0,1,18.52,77.88,54.2,54.2,0,0,1,28.24,74.41Zm39.52,0a54.2,54.2,0,0,1,9.72,3.47A42,42,0,0,1,59.71,88.33,39.57,39.57,0,0,0,67.76,74.41ZM69,70.59A81,81,0,0,0,72,50H90A41.76,41.76,0,0,1,80.3,74.81,56.67,56.67,0,0,0,69,70.59Z"/><text x="0" y="111" fill="#000000" font-size="5px" font-weight="bold" font-family="'Helvetica Neue', Helvetica, Arial-Unicode, Arial, Sans-serif">Created by crywill</text><text x="0" y="116" fill="#000000" font-size="5px" font-weight="bold" font-family="'Helvetica Neue', Helvetica, Arial-Unicode, Arial, Sans-serif">from the Noun Project</text></svg>