<?xml version="1.0" encoding="utf-8"?>
<!-- Generator: Adobe Illustrator 24.2.3, SVG Export Plug-In . SVG Version: 6.00 Build 0)  -->
<svg version="1.1" id="Layer_1" xmlns="http://www.w3.org/2000/svg" xmlns:xlink="http://www.w3.org/1999/xlink" x="0px" y="0px"
	 viewBox="0 0 100 100" style="enable-background:new 0 0 100 100;" xml:space="preserve">
<path d="M94.1,80.6C89,92.8,77,95,73.1,95c-1.1,0-19,0.9-44.7-23.4C7.8,52,5.2,30.9,5,26.9C4.8,23,5.9,13.2,19.4,5.9
	c1.7-0.9,5-1.3,5.8-0.4c0.4,0.4,11.7,19,12,19.6c0.3,0.6,0.4,1.2,0.4,1.8c0,0.8-0.6,1.9-1.8,3.2c-1.2,1.3-2.5,2.4-3.9,3.5
	c-1.4,1.1-2.7,2.2-4,3.4c-1.2,1.2-1.8,2.2-1.8,2.9c0.1,2,1.7,9.1,14.1,20C52.6,70.7,58.5,73.8,59.1,74c0.6,0.2,1.1,0.3,1.4,0.3
	c0.8,0,1.7-0.6,2.9-1.8c1.2-1.2,5.2-6.7,6.5-7.9c1.3-1.2,2.3-1.8,3.2-1.8c0.6,0,1.2,0.1,1.8,0.4c0.6,0.3,19.2,11.2,19.6,11.6
	C95.5,75.8,94.8,78.9,94.1,80.6"/>
</svg>
